solid Parts Tray Holder
facet normal 0.0 0.0 1.0
outer loop
vertex 0.0 -2.6 60.0
vertex 1.3478658296702 -1.2521341703298 60.0
vertex 0.0 85.3 60.0
endloop
endfacet
facet normal 0.0 0.0 1.0
outer loop
vertex 1.3478658296702 -1.2521341703298 60.0
vertex 0.0 -2.6 60.0
vertex 83.6 -2.6 60.0
endloop
endfacet
facet normal 0.0 0.0 1.0
outer loop
vertex 1.3478658296702 -1.2521341703298 60.0
vertex 83.6 -2.6 60.0
vertex 82.2521341703298 -1.2521341703298 60.0
endloop
endfacet
facet normal 0.0 0.0 1.0
outer loop
vertex 82.2521341703298 -1.2521341703298 60.0
vertex 83.6 -2.6 60.0
vertex 82.2521341703298 14.7478658296702 60.0
endloop
endfacet
facet normal 0.0 0.0 1.0
outer loop
vertex 82.2521341703298 14.7478658296702 60.0
vertex 83.6 -2.6 60.0
vertex 82.2521341703298 16.0478658296702 60.0
endloop
endfacet
facet normal 0.0 0.0 1.0
outer loop
vertex 82.2521341703298 16.0478658296702 60.0
vertex 83.6 -2.6 60.0
vertex 82.2521341703298 32.0478658296702 60.0
endloop
endfacet
facet normal 0.0 0.0 1.0
outer loop
vertex 82.2521341703298 32.0478658296702 60.0
vertex 83.6 -2.6 60.0
vertex 82.2521341703298 33.3478658296702 60.0
endloop
endfacet
facet normal 0.0 0.0 1.0
outer loop
vertex 82.2521341703298 33.3478658296702 60.0
vertex 83.6 -2.6 60.0
vertex 82.2521341703298 49.3478658296702 60.0
endloop
endfacet
facet normal 0.0 0.0 1.0
outer loop
vertex 82.2521341703298 49.3478658296702 60.0
vertex 83.6 -2.6 60.0
vertex 82.2521341703298 50.6478658296702 60.0
endloop
endfacet
facet normal 0.0 0.0 1.0
outer loop
vertex 82.2521341703298 50.6478658296702 60.0
vertex 83.6 -2.6 60.0
vertex 82.2521341703298 66.6478658296702 60.0
endloop
endfacet
facet normal 0.0 0.0 1.0
outer loop
vertex 82.2521341703298 66.6478658296702 60.0
vertex 83.6 -2.6 60.0
vertex 82.2521341703298 67.9478658296702 60.0
endloop
endfacet
facet normal 0.0 0.0 1.0
outer loop
vertex 82.2521341703298 67.9478658296702 60.0
vertex 83.6 -2.6 60.0
vertex 82.2521341703298 83.9521341703298 60.0
endloop
endfacet
facet normal 0.0 0.0 1.0
outer loop
vertex 0.0 85.3 60.0
vertex 1.3478658296702 83.9521341703298 60.0
vertex 83.6 85.3 60.0
endloop
endfacet
facet normal 0.0 0.0 1.0
outer loop
vertex 1.3478658296702 83.9521341703298 60.0
vertex 0.0 85.3 60.0
vertex 1.3478658296702 -1.2521341703298 60.0
endloop
endfacet
facet normal 0.0 0.0 1.0
outer loop
vertex 83.6 85.3 60.0
vertex 1.3478658296702 83.9521341703298 60.0
vertex 82.2521341703298 83.9521341703298 60.0
endloop
endfacet
facet normal 0.0 0.0 1.0
outer loop
vertex 83.6 85.3 60.0
vertex 82.2521341703298 83.9521341703298 60.0
vertex 83.6 -2.6 60.0
endloop
endfacet
facet normal 0.0 0.0 1.0
outer loop
vertex 1.3478658296702 14.7478658296702 60.0
vertex 1.3478658296702 83.9521341703298 60.0
vertex 1.3478658296702 -1.2521341703298 60.0
endloop
endfacet
facet normal 0.0 0.0 1.0
outer loop
vertex 1.3478658296702 83.9521341703298 60.0
vertex 1.3478658296702 14.7478658296702 60.0
vertex 1.3478658296702 67.9478658296702 60.0
endloop
endfacet
facet normal 0.0 0.0 1.0
outer loop
vertex 1.3478658296702 67.9478658296702 60.0
vertex 1.3478658296702 14.7478658296702 60.0
vertex 1.3478658296702 16.0478658296702 60.0
endloop
endfacet
facet normal 0.0 0.0 1.0
outer loop
vertex 1.3478658296702 67.9478658296702 60.0
vertex 1.3478658296702 16.0478658296702 60.0
vertex 1.3478658296702 32.0478658296702 60.0
endloop
endfacet
facet normal 0.0 0.0 1.0
outer loop
vertex 1.3478658296702 67.9478658296702 60.0
vertex 1.3478658296702 32.0478658296702 60.0
vertex 1.3478658296702 33.3478658296702 60.0
endloop
endfacet
facet normal 0.0 0.0 1.0
outer loop
vertex 1.3478658296702 67.9478658296702 60.0
vertex 1.3478658296702 33.3478658296702 60.0
vertex 1.3478658296702 49.3478658296702 60.0
endloop
endfacet
facet normal 0.0 0.0 1.0
outer loop
vertex 1.3478658296702 67.9478658296702 60.0
vertex 1.3478658296702 49.3478658296702 60.0
vertex 1.3478658296702 50.6478658296702 60.0
endloop
endfacet
facet normal 0.0 0.0 1.0
outer loop
vertex 1.3478658296702 67.9478658296702 60.0
vertex 1.3478658296702 50.6478658296702 60.0
vertex 1.3478658296702 66.6478658296702 60.0
endloop
endfacet
facet normal 0.0 0.0 1.0
outer loop
vertex 1.3478658296702 67.9478658296702 60.0
vertex 1.3478658296702 66.6478658296702 60.0
vertex 82.2521341703298 66.6478658296702 60.0
endloop
endfacet
facet normal 0.0 0.0 1.0
outer loop
vertex 1.3478658296702 67.9478658296702 60.0
vertex 82.2521341703298 66.6478658296702 60.0
vertex 82.2521341703298 67.9478658296702 60.0
endloop
endfacet
facet normal 0.0 0.0 1.0
outer loop
vertex 82.2521341703298 49.3478658296702 60.0
vertex 1.3478658296702 50.6478658296702 60.0
vertex 1.3478658296702 49.3478658296702 60.0
endloop
endfacet
facet normal 0.0 0.0 1.0
outer loop
vertex 1.3478658296702 50.6478658296702 60.0
vertex 82.2521341703298 49.3478658296702 60.0
vertex 82.2521341703298 50.6478658296702 60.0
endloop
endfacet
facet normal 0.0 0.0 1.0
outer loop
vertex 82.2521341703298 32.0478658296702 60.0
vertex 1.3478658296702 33.3478658296702 60.0
vertex 1.3478658296702 32.0478658296702 60.0
endloop
endfacet
facet normal 0.0 0.0 1.0
outer loop
vertex 1.3478658296702 33.3478658296702 60.0
vertex 82.2521341703298 32.0478658296702 60.0
vertex 82.2521341703298 33.3478658296702 60.0
endloop
endfacet
facet normal 0.0 0.0 1.0
outer loop
vertex 82.2521341703298 14.7478658296702 60.0
vertex 1.3478658296702 16.0478658296702 60.0
vertex 1.3478658296702 14.7478658296702 60.0
endloop
endfacet
facet normal 0.0 0.0 1.0
outer loop
vertex 1.3478658296702 16.0478658296702 60.0
vertex 82.2521341703298 14.7478658296702 60.0
vertex 82.2521341703298 16.0478658296702 60.0
endloop
endfacet
facet normal -1.0 0.0 0.0
outer loop
vertex 0.0 85.3 60.0
vertex 0.0 -2.6 0.0
vertex 0.0 -2.6 60.0
endloop
endfacet
facet normal -1.0 0.0 0.0
outer loop
vertex 0.0 -2.6 0.0
vertex 0.0 85.3 60.0
vertex 0.0 85.3 0.0
endloop
endfacet
facet normal 1.0 -1.13708325909189e-017 -0.0
outer loop
vertex 1.3478658296702 14.7478658296702 1.3
vertex 1.3478658296702 -1.2521341703298 60.0
vertex 1.3478658296702 -1.2521341703298 1.3
endloop
endfacet
facet normal 1.0 -1.13708325909189e-017 -0.0
outer loop
vertex 1.3478658296702 -1.2521341703298 60.0
vertex 1.3478658296702 14.7478658296702 1.3
vertex 1.3478658296702 14.7478658296702 60.0
endloop
endfacet
facet normal 1.0 1.14414979836489e-017 -5.41630542758633e-035
outer loop
vertex 1.3478658296702 83.9521341703298 1.3
vertex 1.3478658296702 67.9478658296702 60.0
vertex 1.3478658296702 67.9478658296702 1.3
endloop
endfacet
facet normal 1.0 1.14414979836489e-017 -5.41630542758633e-035
outer loop
vertex 1.3478658296702 67.9478658296702 60.0
vertex 1.3478658296702 83.9521341703298 1.3
vertex 1.3478658296702 83.9521341703298 60.0
endloop
endfacet
facet normal 0.0 1.0 0.0
outer loop
vertex 1.3478658296702 67.9478658296702 60.0
vertex 82.2521341703298 67.9478658296702 1.3
vertex 1.3478658296702 67.9478658296702 1.3
endloop
endfacet
facet normal 0.0 1.0 0.0
outer loop
vertex 82.2521341703298 67.9478658296702 1.3
vertex 1.3478658296702 67.9478658296702 60.0
vertex 82.2521341703298 67.9478658296702 60.0
endloop
endfacet
facet normal -1.0 0.0 0.0
outer loop
vertex 82.2521341703298 83.9521341703298 60.0
vertex 82.2521341703298 67.9478658296702 1.3
vertex 82.2521341703298 67.9478658296702 60.0
endloop
endfacet
facet normal -1.0 0.0 0.0
outer loop
vertex 82.2521341703298 67.9478658296702 1.3
vertex 82.2521341703298 83.9521341703298 60.0
vertex 82.2521341703298 83.9521341703298 1.3
endloop
endfacet
facet normal 0.0 -1.0 0.0
outer loop
vertex 82.2521341703298 83.9521341703298 60.0
vertex 1.3478658296702 83.9521341703298 1.3
vertex 82.2521341703298 83.9521341703298 1.3
endloop
endfacet
facet normal 0.0 -1.0 0.0
outer loop
vertex 1.3478658296702 83.9521341703298 1.3
vertex 82.2521341703298 83.9521341703298 60.0
vertex 1.3478658296702 83.9521341703298 60.0
endloop
endfacet
facet normal 1.0 -0.0 -0.0
outer loop
vertex 1.3478658296702 66.6478658296702 1.3
vertex 1.3478658296702 50.6478658296702 60.0
vertex 1.3478658296702 50.6478658296702 1.3
endloop
endfacet
facet normal 1.0 -0.0 -0.0
outer loop
vertex 1.3478658296702 50.6478658296702 60.0
vertex 1.3478658296702 66.6478658296702 1.3
vertex 1.3478658296702 66.6478658296702 60.0
endloop
endfacet
facet normal 0.0 1.0 0.0
outer loop
vertex 1.3478658296702 50.6478658296702 60.0
vertex 82.2521341703298 50.6478658296702 1.3
vertex 1.3478658296702 50.6478658296702 1.3
endloop
endfacet
facet normal 0.0 1.0 0.0
outer loop
vertex 82.2521341703298 50.6478658296702 1.3
vertex 1.3478658296702 50.6478658296702 60.0
vertex 82.2521341703298 50.6478658296702 60.0
endloop
endfacet
facet normal -1.0 0.0 0.0
outer loop
vertex 82.2521341703298 66.6478658296702 60.0
vertex 82.2521341703298 50.6478658296702 1.3
vertex 82.2521341703298 50.6478658296702 60.0
endloop
endfacet
facet normal -1.0 0.0 0.0
outer loop
vertex 82.2521341703298 50.6478658296702 1.3
vertex 82.2521341703298 66.6478658296702 60.0
vertex 82.2521341703298 66.6478658296702 1.3
endloop
endfacet
facet normal 0.0 -1.0 0.0
outer loop
vertex 82.2521341703298 66.6478658296702 60.0
vertex 1.3478658296702 66.6478658296702 1.3
vertex 82.2521341703298 66.6478658296702 1.3
endloop
endfacet
facet normal 0.0 -1.0 0.0
outer loop
vertex 1.3478658296702 66.6478658296702 1.3
vertex 82.2521341703298 66.6478658296702 60.0
vertex 1.3478658296702 66.6478658296702 60.0
endloop
endfacet
facet normal 1.0 -0.0 -0.0
outer loop
vertex 1.3478658296702 49.3478658296702 1.3
vertex 1.3478658296702 33.3478658296702 60.0
vertex 1.3478658296702 33.3478658296702 1.3
endloop
endfacet
facet normal 1.0 -0.0 -0.0
outer loop
vertex 1.3478658296702 33.3478658296702 60.0
vertex 1.3478658296702 49.3478658296702 1.3
vertex 1.3478658296702 49.3478658296702 60.0
endloop
endfacet
facet normal 1.0 -0.0 -0.0
outer loop
vertex 1.3478658296702 32.0478658296702 1.3
vertex 1.3478658296702 16.0478658296702 60.0
vertex 1.3478658296702 16.0478658296702 1.3
endloop
endfacet
facet normal 1.0 -0.0 -0.0
outer loop
vertex 1.3478658296702 16.0478658296702 60.0
vertex 1.3478658296702 32.0478658296702 1.3
vertex 1.3478658296702 32.0478658296702 60.0
endloop
endfacet
facet normal 0.0 1.0 0.0
outer loop
vertex 1.3478658296702 16.0478658296702 60.0
vertex 82.2521341703298 16.0478658296702 1.3
vertex 1.3478658296702 16.0478658296702 1.3
endloop
endfacet
facet normal 0.0 1.0 0.0
outer loop
vertex 82.2521341703298 16.0478658296702 1.3
vertex 1.3478658296702 16.0478658296702 60.0
vertex 82.2521341703298 16.0478658296702 60.0
endloop
endfacet
facet normal -0.0 -0.0 1.0
outer loop
vertex 82.2521341703298 50.6478658296702 1.3
vertex 1.3478658296702 66.6478658296702 1.3
vertex 1.3478658296702 50.6478658296702 1.3
endloop
endfacet
facet normal -0.0 -0.0 1.0
outer loop
vertex 1.3478658296702 66.6478658296702 1.3
vertex 82.2521341703298 50.6478658296702 1.3
vertex 82.2521341703298 66.6478658296702 1.3
endloop
endfacet
facet normal -0.0 -0.0 1.0
outer loop
vertex 1.3478658296702 67.9478658296702 1.3
vertex 82.2521341703298 83.9521341703298 1.3
vertex 1.3478658296702 83.9521341703298 1.3
endloop
endfacet
facet normal -0.0 -0.0 1.0
outer loop
vertex 82.2521341703298 83.9521341703298 1.3
vertex 1.3478658296702 67.9478658296702 1.3
vertex 82.2521341703298 67.9478658296702 1.3
endloop
endfacet
facet normal -0.0 -1.0 -0.0
outer loop
vertex 83.6 -2.6 60.0
vertex 0.0 -2.6 0.0
vertex 83.6 -2.6 0.0
endloop
endfacet
facet normal -0.0 -1.0 -0.0
outer loop
vertex 0.0 -2.6 0.0
vertex 83.6 -2.6 60.0
vertex 0.0 -2.6 60.0
endloop
endfacet
facet normal 1.0 0.0 0.0
outer loop
vertex 83.6 85.3 0.0
vertex 83.6 -2.6 60.0
vertex 83.6 -2.6 0.0
endloop
endfacet
facet normal 1.0 0.0 0.0
outer loop
vertex 83.6 -2.6 60.0
vertex 83.6 85.3 0.0
vertex 83.6 85.3 60.0
endloop
endfacet
facet normal 0.0 -1.0 0.0
outer loop
vertex 82.2521341703298 14.7478658296702 60.0
vertex 1.3478658296702 14.7478658296702 1.3
vertex 82.2521341703298 14.7478658296702 1.3
endloop
endfacet
facet normal 0.0 -1.0 0.0
outer loop
vertex 1.3478658296702 14.7478658296702 1.3
vertex 82.2521341703298 14.7478658296702 60.0
vertex 1.3478658296702 14.7478658296702 60.0
endloop
endfacet
facet normal -0.0 -0.0 1.0
outer loop
vertex 82.2521341703298 33.3478658296702 1.3
vertex 1.3478658296702 49.3478658296702 1.3
vertex 1.3478658296702 33.3478658296702 1.3
endloop
endfacet
facet normal -0.0 -0.0 1.0
outer loop
vertex 1.3478658296702 49.3478658296702 1.3
vertex 82.2521341703298 33.3478658296702 1.3
vertex 82.2521341703298 49.3478658296702 1.3
endloop
endfacet
facet normal -1.0 0.0 0.0
outer loop
vertex 82.2521341703298 49.3478658296702 60.0
vertex 82.2521341703298 33.3478658296702 1.3
vertex 82.2521341703298 33.3478658296702 60.0
endloop
endfacet
facet normal -1.0 0.0 0.0
outer loop
vertex 82.2521341703298 33.3478658296702 1.3
vertex 82.2521341703298 49.3478658296702 60.0
vertex 82.2521341703298 49.3478658296702 1.3
endloop
endfacet
facet normal 0.0 -1.0 0.0
outer loop
vertex 82.2521341703298 32.0478658296702 60.0
vertex 1.3478658296702 32.0478658296702 1.3
vertex 82.2521341703298 32.0478658296702 1.3
endloop
endfacet
facet normal 0.0 -1.0 0.0
outer loop
vertex 1.3478658296702 32.0478658296702 1.3
vertex 82.2521341703298 32.0478658296702 60.0
vertex 1.3478658296702 32.0478658296702 60.0
endloop
endfacet
facet normal -1.0 0.0 0.0
outer loop
vertex 82.2521341703298 32.0478658296702 60.0
vertex 82.2521341703298 16.0478658296702 1.3
vertex 82.2521341703298 16.0478658296702 60.0
endloop
endfacet
facet normal -1.0 0.0 0.0
outer loop
vertex 82.2521341703298 16.0478658296702 1.3
vertex 82.2521341703298 32.0478658296702 60.0
vertex 82.2521341703298 32.0478658296702 1.3
endloop
endfacet
facet normal 0.0 1.0 0.0
outer loop
vertex 1.3478658296702 33.3478658296702 60.0
vertex 82.2521341703298 33.3478658296702 1.3
vertex 1.3478658296702 33.3478658296702 1.3
endloop
endfacet
facet normal 0.0 1.0 0.0
outer loop
vertex 82.2521341703298 33.3478658296702 1.3
vertex 1.3478658296702 33.3478658296702 60.0
vertex 82.2521341703298 33.3478658296702 60.0
endloop
endfacet
facet normal -0.0 -0.0 1.0
outer loop
vertex 82.2521341703298 16.0478658296702 1.3
vertex 1.3478658296702 32.0478658296702 1.3
vertex 1.3478658296702 16.0478658296702 1.3
endloop
endfacet
facet normal -0.0 -0.0 1.0
outer loop
vertex 1.3478658296702 32.0478658296702 1.3
vertex 82.2521341703298 16.0478658296702 1.3
vertex 82.2521341703298 32.0478658296702 1.3
endloop
endfacet
facet normal 0.0 -1.0 0.0
outer loop
vertex 82.2521341703298 49.3478658296702 60.0
vertex 1.3478658296702 49.3478658296702 1.3
vertex 82.2521341703298 49.3478658296702 1.3
endloop
endfacet
facet normal 0.0 -1.0 0.0
outer loop
vertex 1.3478658296702 49.3478658296702 1.3
vertex 82.2521341703298 49.3478658296702 60.0
vertex 1.3478658296702 49.3478658296702 60.0
endloop
endfacet
facet normal 0.0 0.0 -1.0
outer loop
vertex 83.6 85.3 0.0
vertex 0.0 -2.6 0.0
vertex 0.0 85.3 0.0
endloop
endfacet
facet normal 0.0 0.0 -1.0
outer loop
vertex 0.0 -2.6 0.0
vertex 83.6 85.3 0.0
vertex 83.6 -2.6 0.0
endloop
endfacet
facet normal -0.0 1.0 0.0
outer loop
vertex 0.0 85.3 60.0
vertex 83.6 85.3 0.0
vertex 0.0 85.3 0.0
endloop
endfacet
facet normal -0.0 1.0 0.0
outer loop
vertex 83.6 85.3 0.0
vertex 0.0 85.3 60.0
vertex 83.6 85.3 60.0
endloop
endfacet
facet normal -1.0 0.0 0.0
outer loop
vertex 82.2521341703298 14.7478658296702 60.0
vertex 82.2521341703298 -1.2521341703298 1.3
vertex 82.2521341703298 -1.2521341703298 60.0
endloop
endfacet
facet normal -1.0 0.0 0.0
outer loop
vertex 82.2521341703298 -1.2521341703298 1.3
vertex 82.2521341703298 14.7478658296702 60.0
vertex 82.2521341703298 1.3478658296702 1.3
endloop
endfacet
facet normal -1.0 0.0 0.0
outer loop
vertex 82.2521341703298 1.3478658296702 1.3
vertex 82.2521341703298 14.7478658296702 60.0
vertex 82.2521341703298 14.7478658296702 1.3
endloop
endfacet
facet normal -0.0 -0.0 1.0
outer loop
vertex 82.2521341703298 -1.2521341703298 1.3
vertex 1.3478658296702 14.7478658296702 1.3
vertex 1.3478658296702 -1.2521341703298 1.3
endloop
endfacet
facet normal -0.0 -0.0 1.0
outer loop
vertex 1.3478658296702 14.7478658296702 1.3
vertex 82.2521341703298 -1.2521341703298 1.3
vertex 82.2521341703298 14.7478658296702 1.3
endloop
endfacet
facet normal -0.0 -0.0 1.0
outer loop
vertex 82.2521341703298 14.7478658296702 1.3
vertex 82.2521341703298 -1.2521341703298 1.3
vertex 82.2521341703298 1.3478658296702 1.3
endloop
endfacet
facet normal 4.35694948546164e-018 1.0 0.0
outer loop
vertex 1.3478658296702 -1.2521341703298 60.0
vertex 82.2521341703298 -1.2521341703298 1.3
vertex 1.3478658296702 -1.2521341703298 1.3
endloop
endfacet
facet normal 4.35694948546164e-018 1.0 0.0
outer loop
vertex 82.2521341703298 -1.2521341703298 1.3
vertex 1.3478658296702 -1.2521341703298 60.0
vertex 82.2521341703298 -1.2521341703298 60.0
endloop
endfacet
endsolid Parts Tray Holder
